<svg width="33" height="10" viewBox="0 0 33 16" fill="none" xmlns="http://www.w3.org/2000/svg">
<path d="M26.3011 15.5657C26.0134 15.8574 25.5593 15.843 25.285 15.537C25.0108 15.231 25.0243 14.748 25.312 14.4563L30.8285 8.89034L0.719345 8.89034C0.323705 8.89034 7.88813e-08 8.54606 8.34725e-08 8.12526C8.80637e-08 7.70446 0.323705 7.36018 0.719345 7.36018L30.806 7.36018L25.312 1.7942C25.0243 1.50251 25.0153 1.01955 25.285 0.713515C25.4244 0.555717 25.6177 0.474426 25.8065 0.474426C25.9864 0.474426 26.1617 0.546153 26.3011 0.684824L32.5774 7.04458C32.8471 7.33149 33 7.71881 33 8.12526C33 8.53171 32.8516 8.91903 32.5639 9.22029L26.3011 15.5657Z" fill="#BDD5E8"/>
</svg>
