<svg width="51" height="51" viewBox="0 0 51 51" fill="none" xmlns="http://www.w3.org/2000/svg">
<path d="M48.056 45.681C46.6597 45.681 45.5277 46.813 45.5277 48.2093C45.5277 49.6056 46.6597 50.7375 48.056 50.7375C49.4523 50.7375 50.5842 49.6056 50.5842 48.2093C50.5842 46.813 49.4523 45.681 48.056 45.681Z" fill="#9ECBFF"/>
<path d="M40.5482 38.0197C39.1519 38.0197 38.0199 39.1516 38.0199 40.5479C38.0199 41.9442 39.1519 43.0762 40.5482 43.0762C41.9445 43.0762 43.0764 41.9442 43.0764 40.5479C43.0764 39.1516 41.9445 38.0197 40.5482 38.0197Z" fill="#9ECBFF"/>
<path d="M40.5482 45.681C39.1519 45.681 38.0199 46.813 38.0199 48.2093C38.0199 49.6056 39.1519 50.7375 40.5482 50.7375C41.9445 50.7375 43.0764 49.6056 43.0764 48.2093C43.0764 46.813 41.9445 45.681 40.5482 45.681Z" fill="#9ECBFF"/>
<path d="M32.8865 38.0197C31.4902 38.0197 30.3583 39.1516 30.3583 40.5479C30.3583 41.9442 31.4902 43.0762 32.8865 43.0762C34.2829 43.0762 35.4148 41.9442 35.4148 40.5479C35.4148 39.1516 34.2829 38.0197 32.8865 38.0197Z" fill="#9ECBFF"/>
<path d="M32.8865 30.5116C31.4902 30.5116 30.3583 31.6436 30.3583 33.0399C30.3583 34.4362 31.4902 35.5681 32.8865 35.5681C34.2829 35.5681 35.4148 34.4362 35.4148 33.0399C35.4148 31.6436 34.2829 30.5116 32.8865 30.5116Z" fill="#9ECBFF"/>
<path d="M32.8865 45.681C31.4902 45.681 30.3583 46.813 30.3583 48.2093C30.3583 49.6056 31.4902 50.7375 32.8865 50.7375C34.2829 50.7375 35.4148 49.6056 35.4148 48.2093C35.4148 46.813 34.2829 45.681 32.8865 45.681Z" fill="#9ECBFF"/>
<path d="M25.3782 38.0197C23.9819 38.0197 22.85 39.1516 22.85 40.5479C22.85 41.9442 23.9819 43.0762 25.3782 43.0762C26.7746 43.0762 27.9065 41.9442 27.9065 40.5479C27.9065 39.1516 26.7746 38.0197 25.3782 38.0197Z" fill="#9ECBFF"/>
<path d="M25.3782 30.5116C23.9819 30.5116 22.85 31.6436 22.85 33.0399C22.85 34.4362 23.9819 35.5681 25.3782 35.5681C26.7746 35.5681 27.9065 34.4362 27.9065 33.0399C27.9065 31.6436 26.7746 30.5116 25.3782 30.5116Z" fill="#9ECBFF"/>
<path d="M25.3782 45.681C23.9819 45.681 22.85 46.813 22.85 48.2093C22.85 49.6056 23.9819 50.7375 25.3782 50.7375C26.7746 50.7375 27.9065 49.6056 27.9065 48.2093C27.9065 46.813 26.7746 45.681 25.3782 45.681Z" fill="#9ECBFF"/>
<path d="M17.8699 38.0197C16.4736 38.0197 15.3417 39.1516 15.3417 40.5479C15.3417 41.9442 16.4736 43.0762 17.8699 43.0762C19.2663 43.0762 20.3982 41.9442 20.3982 40.5479C20.3982 39.1516 19.2663 38.0197 17.8699 38.0197Z" fill="#9ECBFF"/>
<path d="M17.8699 30.5116C16.4736 30.5116 15.3417 31.6436 15.3417 33.0399C15.3417 34.4362 16.4736 35.5681 17.8699 35.5681C19.2663 35.5681 20.3982 34.4362 20.3982 33.0399C20.3982 31.6436 19.2663 30.5116 17.8699 30.5116Z" fill="#9ECBFF"/>
<path d="M25.3782 23.0033C23.9819 23.0033 22.85 24.1353 22.85 25.5316C22.85 26.9279 23.9819 28.0598 25.3782 28.0598C26.7746 28.0598 27.9065 26.9279 27.9065 25.5316C27.9065 24.1353 26.7746 23.0033 25.3782 23.0033Z" fill="#9ECBFF"/>
<path d="M17.8699 23.0033C16.4736 23.0033 15.3417 24.1353 15.3417 25.5316C15.3417 26.9279 16.4736 28.0598 17.8699 28.0598C19.2663 28.0598 20.3982 26.9279 20.3982 25.5316C20.3982 24.1353 19.2663 23.0033 17.8699 23.0033Z" fill="#9ECBFF"/>
<path d="M32.8864 15.3418C31.49 15.3418 30.358 16.4739 30.358 17.8703C30.358 19.2667 31.49 20.3987 32.8864 20.3987C34.2828 20.3987 35.4148 19.2667 35.4148 17.8703C35.4148 16.4739 34.2828 15.3418 32.8864 15.3418Z" fill="#9ECBFF"/>
<path d="M25.3783 15.3418C23.9819 15.3418 22.8499 16.4739 22.8499 17.8703C22.8499 19.2667 23.9819 20.3987 25.3783 20.3987C26.7747 20.3987 27.9067 19.2667 27.9067 17.8703C27.9067 16.4739 26.7747 15.3418 25.3783 15.3418Z" fill="#9ECBFF"/>
<path d="M17.87 15.3418C16.4736 15.3418 15.3416 16.4739 15.3416 17.8703C15.3416 19.2667 16.4736 20.3987 17.87 20.3987C19.2664 20.3987 20.3984 19.2667 20.3984 17.8703C20.3984 16.4739 19.2664 15.3418 17.87 15.3418Z" fill="#9ECBFF"/>
<path d="M40.5482 7.82436C39.1519 7.82436 38.0199 8.9563 38.0199 10.3526C38.0199 11.7489 39.1519 12.8809 40.5482 12.8809C41.9445 12.8809 43.0764 11.7489 43.0764 10.3526C43.0764 8.9563 41.9445 7.82436 40.5482 7.82436Z" fill="#9ECBFF"/>
<path d="M32.8865 7.82436C31.4902 7.82436 30.3583 8.9563 30.3583 10.3526C30.3583 11.7489 31.4902 12.8809 32.8865 12.8809C34.2829 12.8809 35.4148 11.7489 35.4148 10.3526C35.4148 8.9563 34.2829 7.82436 32.8865 7.82436Z" fill="#9ECBFF"/>
<path d="M25.3782 7.82436C23.9819 7.82436 22.85 8.9563 22.85 10.3526C22.85 11.7489 23.9819 12.8809 25.3782 12.8809C26.7746 12.8809 27.9065 11.7489 27.9065 10.3526C27.9065 8.9563 26.7746 7.82436 25.3782 7.82436Z" fill="#9ECBFF"/>
<path d="M17.8699 7.82436C16.4736 7.82436 15.3417 8.9563 15.3417 10.3526C15.3417 11.7489 16.4736 12.8809 17.8699 12.8809C19.2663 12.8809 20.3982 11.7489 20.3982 10.3526C20.3982 8.9563 19.2663 7.82436 17.8699 7.82436Z" fill="#9ECBFF"/>
<path d="M10.0457 30.5116C8.64941 30.5116 7.51747 31.6436 7.51747 33.0399C7.51747 34.4362 8.64941 35.5681 10.0457 35.5681C11.442 35.5681 12.574 34.4362 12.574 33.0399C12.574 31.6436 11.442 30.5116 10.0457 30.5116Z" fill="#9ECBFF"/>
<path d="M10.0457 23.0033C8.64941 23.0033 7.51747 24.1353 7.51747 25.5316C7.51747 26.9279 8.64941 28.0598 10.0457 28.0598C11.442 28.0598 12.574 26.9279 12.574 25.5316C12.574 24.1353 11.442 23.0033 10.0457 23.0033Z" fill="#9ECBFF"/>
<path d="M10.0458 15.3418C8.64939 15.3418 7.51738 16.4739 7.51738 17.8703C7.51738 19.2667 8.64939 20.3987 10.0458 20.3987C11.4422 20.3987 12.5742 19.2667 12.5742 17.8703C12.5742 16.4739 11.4422 15.3418 10.0458 15.3418Z" fill="#9ECBFF"/>
<path d="M48.0563 4.03101e-05C46.6599 4.0188e-05 45.5279 1.13205 45.5279 2.52846C45.5279 3.92487 46.6599 5.05688 48.0563 5.05688C49.4527 5.05688 50.5847 3.92487 50.5847 2.52846C50.5847 1.13205 49.4527 4.04322e-05 48.0563 4.03101e-05Z" fill="#9ECBFF"/>
<path d="M40.548 4.03101e-05C39.1516 4.0188e-05 38.0196 1.13205 38.0196 2.52846C38.0196 3.92487 39.1516 5.05688 40.548 5.05688C41.9444 5.05688 43.0764 3.92487 43.0764 2.52846C43.0764 1.13205 41.9444 4.04322e-05 40.548 4.03101e-05Z" fill="#9ECBFF"/>
<path d="M32.8864 4.03101e-05C31.49 4.0188e-05 30.358 1.13205 30.358 2.52846C30.358 3.92487 31.49 5.05688 32.8864 5.05688C34.2828 5.05688 35.4148 3.92487 35.4148 2.52846C35.4148 1.13205 34.2828 4.04322e-05 32.8864 4.03101e-05Z" fill="#9ECBFF"/>
<path d="M25.3783 4.03101e-05C23.9819 4.0188e-05 22.8499 1.13205 22.8499 2.52846C22.8499 3.92487 23.9819 5.05688 25.3783 5.05688C26.7747 5.05688 27.9067 3.92487 27.9067 2.52846C27.9067 1.13205 26.7747 4.04322e-05 25.3783 4.03101e-05Z" fill="#9ECBFF"/>
<path d="M2.52814 23.0033C1.13183 23.0033 -0.000101841 24.1353 -0.000101913 25.5316C-0.000101985 26.9279 1.13183 28.0598 2.52814 28.0598C3.92446 28.0598 5.0564 26.9279 5.0564 25.5316C5.0564 24.1353 3.92446 23.0033 2.52814 23.0033Z" fill="#9ECBFF"/>
</svg>
