<svg width="16" height="33" viewBox="0 0 16 33" fill="none" xmlns="http://www.w3.org/2000/svg">
<path d="M0.210091 26.3011C-0.0815974 26.0134 -0.0672521 25.5593 0.238781 25.285C0.544815 25.0108 1.02777 25.0243 1.31946 25.312L6.88544 30.8285L6.88544 0.719345C6.88544 0.323708 7.22973 0 7.65053 0C8.07132 0 8.41561 0.323708 8.41561 0.719345L8.41561 30.806L13.9816 25.312C14.2733 25.0243 14.7562 25.0153 15.0623 25.285C15.2201 25.4244 15.3014 25.6177 15.3014 25.8065C15.3014 25.9864 15.2296 26.1617 15.091 26.3011L8.73121 32.5774C8.4443 32.8471 8.05698 33 7.65053 33C7.24408 33 6.85675 32.8516 6.5555 32.5639L0.210091 26.3011Z" fill="#3674BD"/>
</svg>
